<?xml version="1.0" encoding="UTF-8" standalone="no"?>
<svg
   width="54"
   height="36.833603"
   fill="none"
   version="1.1"
   id="svg931"
   sodipodi:docname="logo.svg"
   inkscape:version="1.1 (c4e8f9e, 2021-05-24)"
   xmlns:inkscape="http://www.inkscape.org/namespaces/inkscape"
   xmlns:sodipodi="http://sodipodi.sourceforge.net/DTD/sodipodi-0.dtd"
   xmlns:xlink="http://www.w3.org/1999/xlink"
   xmlns="http://www.w3.org/2000/svg"
   xmlns:svg="http://www.w3.org/2000/svg">
  <sodipodi:namedview
     id="namedview933"
     pagecolor="#ffffff"
     bordercolor="#666666"
     borderopacity="1.0"
     inkscape:pageshadow="2"
     inkscape:pageopacity="0.0"
     inkscape:pagecheckerboard="0"
     showgrid="false"
     fit-margin-top="0"
     fit-margin-left="0"
     fit-margin-right="0"
     fit-margin-bottom="0"
     inkscape:zoom="4.0832927"
     inkscape:cx="17.877729"
     inkscape:cy="18.61243"
     inkscape:window-width="1280"
     inkscape:window-height="764"
     inkscape:window-x="0"
     inkscape:window-y="0"
     inkscape:window-maximized="0"
     inkscape:current-layer="svg931" />
  <g
     fill-rule="evenodd"
     id="g854">
    <path
       d="M 51.955,29.202 C 53.243,27.236 54,24.779 54,21.999 54,20.739 53.812,19.485 53.443,18.28 52.007,13.614 47.941,10.056 42.911,9.507 39.353,9.121 35.075,10.627 30.313,14.26 28.291,11.713 26.189,8.976 24.029,6.51 19.79,1.662 17.008,0 13.231,0 7.247,0 3.175,4.539 1.265,10.056 0.427,12.479 0,15.025 0,17.588 c 0.011,4.1 0.963,7.887 2.611,10.991 4.14,7.812 12.661,11.315 21.573,4.675 2.117,-1.574 4.105,-3.592 6.116,-5.629 a 35.94,35.94 0 0 0 4.603,3.89 c 6.63,4.627 13.672,2.847 17.052,-2.314 v 0.002 z M 45.276,17.354 c 2.283,3.546 1.679,8.389 -1.598,10.925 -2.646,-1.531 -5.019,-4.01 -7.087,-6.411 3.124,-2.397 6.042,-3.874 8.685,-4.514 z M 14.19,9.204 c 3.274,2.616 6.4,6.82 9.643,10.962 -3.015,2.99 -6.019,5.885 -9.099,7.762 -2.494,-2.445 -3.944,-5.761 -4.045,-9.253 -0.101,-3.492 1.154,-6.886 3.502,-9.472 v 0 z"
       fill="url(#A)"
       id="path826"
       style="fill:url(#A)" />
    <path
       d="m 46.36,19.822 c 1.239,-0.71 2.692,-0.949 4.092,-0.673 1.4,0.276 2.654,1.049 3.531,2.176 a 12.72,12.72 0 0 0 -0.54,-3.045 12.26,12.26 0 0 0 -4.172,-1.235 11.72,11.72 0 0 0 -3.994,0.302 c 0.489,0.761 0.855,1.595 1.083,2.47"
       fill="#2f3a85"
       id="path828" />
    <path
       d="m 5.561,7.021 c 3.063,-1.058 5.892,0 8.63,2.182 3.274,2.616 6.4,6.82 9.643,10.962 l 2.172,2.722 a 60.08,60.08 0 0 0 4.296,4.739 35.94,35.94 0 0 0 4.603,3.89 c 6.63,4.627 13.672,2.847 17.052,-2.315 -2.988,1.138 -5.756,0.529 -8.277,-0.923 -2.646,-1.531 -5.019,-4.01 -7.087,-6.411 L 33.991,18.76 32.029,16.391 30.314,14.258 C 28.292,11.711 26.19,8.974 24.03,6.508 19.79,1.662 17.008,0 13.231,0 7.247,0 3.175,4.539 1.265,10.056 2.408,8.507 4.088,7.535 5.559,7.025"
       fill="url(#B)"
       id="path830"
       style="fill:url(#B)" />
    <path
       d="m 13.979,4.005 c 3.773,1.323 7.856,6.466 12.192,11.984 2.311,2.941 4.613,5.906 7.162,8.644 l 0.931,0.979 c 5.605,5.732 11.532,8.965 17.691,3.59 -1.544,0.604 -3.229,0.75 -4.853,0.42 A 11.28,11.28 0 0 1 43.683,28.279 C 41.411,26.963 39.34,24.95 37.491,22.886 L 36.597,21.868 C 34.459,19.382 32.363,16.83 30.318,14.259 28.273,11.688 26.188,8.975 24.029,6.509 19.79,1.662 17.008,0 13.231,0 7.247,0 3.175,4.539 1.265,10.056 4.384,3.927 10.056,2.633 13.979,4.005 Z"
       fill="url(#C)"
       id="path832"
       style="fill:url(#C)" />
    <path
       d="m 22.995,19.091 0.838,1.074 2.172,2.722 a 60.06,60.06 0 0 0 4.296,4.739 l 0.977,0.935 1.747,-1.764 a 46.37,46.37 0 0 1 4.391,-3.863 l 0.071,-0.055 -0.894,-1.018 -2.602,-3.107 -1.962,-2.369 -1.715,-2.133 -0.84,-1.059 c -1.657,1.277 -3.23,2.659 -4.71,4.137 L 23,19.094"
       fill="#2f3a85"
       opacity="0.15"
       id="path834" />
    <path
       d="m 36.627,21.954 c 3.124,-2.398 6.042,-3.881 8.685,-4.514 a 11.72,11.72 0 0 1 3.994,-0.302 c 1.453,0.16 2.866,0.578 4.172,1.235 C 52.042,13.693 47.976,10.135 42.946,9.586 39.388,9.2 35.11,10.706 30.348,14.339 a 47.8,47.8 0 0 0 -4.599,4.038 l -1.88,1.868 c -3.015,2.99 -6.019,5.885 -9.099,7.762 -1.93,1.175 -3.881,1.953 -5.899,2.106 -2.163,0.166 -4.313,-0.476 -6.224,-1.455 4.14,7.812 12.661,11.315 21.574,4.675 2.117,-1.574 4.105,-3.592 6.116,-5.629 l 1.773,-1.782 c 1.422,-1.416 2.931,-2.741 4.518,-3.967"
       fill="url(#D)"
       id="path836"
       style="fill:url(#D)" />
    <path
       d="m 47.69,28.969 c -1.429,-0.378 -2.272,-1.117 -2.528,-2.218 a 7.38,7.38 0 0 1 -1.477,1.528 11.28,11.28 0 0 0 3.417,1.343 c 1.626,0.331 3.313,0.185 4.858,-0.42 -1.764,0.133 -3.186,0.055 -4.266,-0.233"
       fill="#2f3a85"
       id="path838" />
    <path
       d="m 1.267,10.096 c -0.84,2.427 -1.268,4.977 -1.267,7.545 0.011,4.1 0.963,7.886 2.611,10.992 1.911,0.977 4.057,1.619 6.224,1.454 2.011,-0.154 3.969,-0.93 5.899,-2.106 -2.497,-2.445 -3.948,-5.764 -4.049,-9.257 -0.101,-3.493 1.155,-6.89 3.506,-9.476 C 11.453,7.057 8.623,5.998 5.561,7.066 4.093,7.576 2.41,8.55 1.267,10.097 Z"
       fill="url(#E)"
       id="path840"
       style="fill:url(#E)" />
    <path
       d="M 27.252,16.86 26.206,15.525 C 21.875,10.012 17.789,4.87 14.016,3.547 10.311,2.247 5.019,3.341 1.815,8.663 A 22.04,22.04 0 0 0 1.266,10.074 C 4.383,3.956 10.055,2.661 13.978,4.034 17.751,5.357 21.834,10.5 26.17,16.018 l 0.849,1.039 0.233,-0.196 z"
       fill="url(#F)"
       id="path842"
       style="fill:url(#F)" />
    <path
       d="m 33.596,24.393 0.706,0.736 c 5.301,5.421 10.895,8.612 16.699,4.38 a 9.49,9.49 0 0 0 0.954,-0.307 c -6.159,5.375 -12.086,2.142 -17.691,-3.586 l -0.931,-0.979 0.263,-0.243 z"
       fill="url(#G)"
       id="path844"
       style="fill:url(#G)" />
    <path
       d="M 27.009,17.056 26.171,15.989 Z"
       fill="url(#H)"
       id="path846"
       style="fill:url(#H)" />
    <path
       d="M 0.196,14.584 C 0.645,13.5 1.38,12.558 2.322,11.859 a 6.47,6.47 0 0 1 3.226,-1.242 c 0.401,-0.037 0.805,-0.037 1.207,0 a 6.48,6.48 0 0 1 4.813,2.86 13.49,13.49 0 0 1 2.623,-4.273 C 12.399,7.772 10.566,6.824 8.657,6.639 A 7.19,7.19 0 0 0 5.561,7.022 C 4.093,7.532 2.41,8.504 1.267,10.056 a 23.01,23.01 0 0 0 -1.071,4.528 m 8.307,14.24 c -1.59,0.353 -3.554,0.272 -5.892,-0.244 1.911,0.979 4.057,1.621 6.224,1.455 L 9.38,29.979 c 1.821,-0.24 3.599,-0.981 5.354,-2.05 a 13.51,13.51 0 0 1 -1.992,-2.47 c -0.817,1.806 -2.229,2.93 -4.234,3.369"
       opacity="0.15"
       fill="#2f3a85"
       id="path848" />
    <path
       d="m 2.611,28.579 c 8.057,9.318 16.193,2.657 24.283,-4.631 4.805,-4.312 10.029,-9.682 15.639,-10.565 3.489,-0.549 8.173,0.923 10.909,4.895 -1.436,-4.664 -5.502,-8.223 -10.532,-8.771 -3.558,-0.386 -7.836,1.12 -12.598,4.753 -1.618,1.246 -3.154,2.595 -4.599,4.038 l -1.881,1.868 c -3.015,2.99 -6.019,5.885 -9.099,7.762 -1.93,1.175 -3.881,1.953 -5.899,2.106 C 6.671,30.2 4.521,29.558 2.61,28.579"
       fill="url(#I)"
       id="path850"
       style="fill:url(#I)" />
    <path
       d="m 2.611,28.579 c 8.057,9.318 16.193,2.657 24.283,-4.631 4.805,-4.311 10.029,-9.681 15.639,-10.565 3.489,-0.549 8.173,0.923 10.909,4.895 A 10.04,10.04 0 0 0 53.274,17.775 C 50.527,13.894 45.902,12.451 42.446,12.994 36.836,13.876 31.613,19.248 26.809,23.561 21.504,28.338 16.18,32.844 10.874,32.757 5.998,32.679 2.999,28.789 2.611,28.578 Z"
       fill="url(#J)"
       id="path852"
       style="fill:url(#J)" />
  </g>
  <defs
     id="defs929">
    <linearGradient
       id="A"
       x1="54"
       y1="18.379"
       x2="0"
       y2="18.379"
       xlink:href="#K">
      <stop
         stop-color="#2f3a85"
         id="stop856" />
      <stop
         offset=".17"
         stop-color="#354c92"
         id="stop858" />
      <stop
         offset=".53"
         stop-color="#467bb5"
         id="stop860" />
      <stop
         offset="1"
         stop-color="#5fc4ea"
         id="stop862" />
    </linearGradient>
    <linearGradient
       id="B"
       x1="53.029999"
       y1="26.254"
       x2="2.112"
       y2="7.7220001"
       xlink:href="#K">
      <stop
         stop-color="#2f3a85"
         id="stop865" />
      <stop
         offset="1"
         stop-color="#5fc4ea"
         id="stop867" />
    </linearGradient>
    <linearGradient
       id="C"
       x1="26.612"
       y1="0"
       x2="26.612"
       y2="31.948"
       xlink:href="#K">
      <stop
         stop-color="#70c9eb"
         stop-opacity=".6"
         id="stop870" />
      <stop
         offset=".18"
         stop-color="#6ec8eb"
         stop-opacity=".52"
         id="stop872" />
      <stop
         offset=".53"
         stop-color="#68c7eb"
         stop-opacity=".31"
         id="stop874" />
      <stop
         offset="1"
         stop-color="#5fc4ea"
         stop-opacity="0"
         id="stop876" />
    </linearGradient>
    <linearGradient
       id="D"
       x1="28.062"
       y1="9.526"
       x2="28.062"
       y2="36.833"
       xlink:href="#K">
      <stop
         offset=".097"
         stop-color="#5fc4ea"
         id="stop879" />
      <stop
         offset="1"
         stop-color="#2f3a85"
         id="stop881" />
    </linearGradient>
    <linearGradient
       id="E"
       x1="7.3670001"
       y1="6.6490002"
       x2="7.3670001"
       y2="30.107"
       xlink:href="#K">
      <stop
         stop-color="#1b4880"
         id="stop884" />
      <stop
         offset="1"
         stop-color="#0597b0"
         id="stop886" />
    </linearGradient>
    <linearGradient
       id="F"
       x1="1.267"
       y1="10.052"
       x2="27.252001"
       y2="10.052"
       xlink:href="#K">
      <stop
         offset=".38"
         stop-color="#70c9eb"
         stop-opacity=".2"
         id="stop889" />
      <stop
         offset=".44"
         stop-color="#6fc9eb"
         stop-opacity=".97"
         id="stop891" />
      <stop
         offset=".52"
         stop-color="#6ec8eb"
         stop-opacity=".88"
         id="stop893" />
      <stop
         offset=".63"
         stop-color="#6bc8eb"
         stop-opacity=".74"
         id="stop895" />
      <stop
         offset=".75"
         stop-color="#68c7eb"
         stop-opacity=".55"
         id="stop897" />
      <stop
         offset=".88"
         stop-color="#63c5ea"
         stop-opacity=".3"
         id="stop899" />
      <stop
         offset="1"
         stop-color="#5fc4ea"
         stop-opacity=".05"
         id="stop901" />
    </linearGradient>
    <linearGradient
       id="G"
       x1="33.333"
       y1="28.17"
       x2="51.955002"
       y2="28.17"
       xlink:href="#K">
      <stop
         stop-color="#70c9eb"
         stop-opacity=".1"
         id="stop904" />
      <stop
         offset="1"
         stop-color="#5fc4ea"
         stop-opacity="0"
         id="stop906" />
    </linearGradient>
    <linearGradient
       id="H"
       x1="26.171"
       y1="16.523001"
       x2="27.009001"
       y2="16.523001"
       xlink:href="#K">
      <stop
         stop-color="#70c9eb"
         id="stop909" />
      <stop
         offset=".4"
         stop-color="#69c7eb"
         stop-opacity=".63"
         id="stop911" />
      <stop
         offset="1"
         stop-color="#5fc4ea"
         stop-opacity=".05"
         id="stop913" />
    </linearGradient>
    <linearGradient
       id="I"
       x1="28.027"
       y1="9.448"
       x2="28.027"
       y2="33.148998"
       xlink:href="#K">
      <stop
         offset=".243"
         stop-color="#71d0f3"
         id="stop916" />
      <stop
         offset="1"
         stop-color="#2f3a85"
         stop-opacity=".3"
         id="stop918" />
    </linearGradient>
    <linearGradient
       id="J"
       x1="53.443001"
       y1="23.018"
       x2="2.6110001"
       y2="23.018"
       xlink:href="#K">
      <stop
         offset=".034"
         stop-color="#b8ebff"
         stop-opacity=".05"
         id="stop921" />
      <stop
         offset=".389"
         stop-color="#b8ebff"
         stop-opacity=".5"
         id="stop923" />
      <stop
         offset=".868"
         stop-color="#5fc4ea"
         stop-opacity=".05"
         id="stop925" />
    </linearGradient>
    <linearGradient
       id="K"
       gradientUnits="userSpaceOnUse" />
  </defs>
</svg>
